<?xml version="1.0" encoding="UTF-8"?>
<svg version="1.1" xmlns="http://www.w3.org/2000/svg" width="261" height="103">
<path d="M0 0 C86.13 0 172.26 0 261 0 C261 33.99 261 67.98 261 103 C174.87 103 88.74 103 0 103 C0 69.01 0 35.02 0 0 Z " fill="#FDFEFD" transform="translate(0,0)"/>
<path d="M0 0 C0.99 0 1.98 0 3 0 C3.36125977 0.7027002 3.72251953 1.40540039 4.09472656 2.12939453 C13.13533249 19.69375557 22.41507446 37.10133379 31.98046875 54.38671875 C36.37774386 62.34068894 40.74148646 70.27501723 44.71875 78.44921875 C46.37248791 81.74156892 48.21677186 84.9070929 50.1171875 88.0625 C51 90 51 90 51 94 C47.29302295 94.26260373 43.58843642 94.42156838 39.875 94.5625 C38.82828125 94.63791016 37.7815625 94.71332031 36.703125 94.79101562 C33.56596483 94.88036512 31.02872286 94.83945265 28 94 C25.21328398 91.35778521 23.47510843 88.53406364 22 85 C22 84.34 22 83.68 22 83 C11.44 83 0.88 83 -10 83 C-9.09485658 77.56913949 -8.24676198 75.20727432 -5.5 70.6875 C-4.8709375 69.63949219 -4.241875 68.59148437 -3.59375 67.51171875 C-2 65 -2 65 -1 64 C0.85287502 63.92773498 2.70833878 63.9161878 4.5625 63.9375 C5.57441406 63.94652344 6.58632813 63.95554688 7.62890625 63.96484375 C8.80259766 63.98224609 8.80259766 63.98224609 10 64 C7.26632546 57.24850486 3.9165869 50.83583331 0.5625 44.375 C-0.01048828 43.25609375 -0.58347656 42.1371875 -1.17382812 40.984375 C-1.73392578 39.90414062 -2.29402344 38.82390625 -2.87109375 37.7109375 C-3.37568115 36.73431152 -3.88026855 35.75768555 -4.40014648 34.75146484 C-6.04215285 31.92750456 -7.89859057 29.49576133 -10 27 C-12.35634071 30.75539385 -12.35634071 30.75539385 -12.70751953 34.98461914 C-11.28533791 39.03572656 -8.87963962 42.72894064 -6.70703125 46.42382812 C-3.95191997 51.34649112 -3.95191997 51.34649112 -4.16699219 54.26977539 C-5.26037939 57.85340642 -6.93212214 61.03414886 -8.7109375 64.3125 C-9.0797403 65.00384033 -9.44854309 65.69518066 -9.82852173 66.4074707 C-11.00465875 68.60826761 -12.18982744 70.80405831 -13.375 73 C-14.16462763 74.47626036 -14.95369599 75.95282001 -15.7421875 77.4296875 C-17.81186042 81.29573898 -19.88574286 85.15808647 -22 89 C-22.46269287 89.96574951 -22.92538574 90.93149902 -23.40209961 91.92651367 C-25 94 -25 94 -27.54370117 94.56762695 C-28.53345947 94.54144287 -29.52321777 94.51525879 -30.54296875 94.48828125 C-31.61611328 94.47216797 -32.68925781 94.45605469 -33.79492188 94.43945312 C-34.91447266 94.39755859 -36.03402344 94.35566406 -37.1875 94.3125 C-38.31865234 94.28994141 -39.44980469 94.26738281 -40.61523438 94.24414062 C-43.41147976 94.18514811 -46.20508097 94.1028824 -49 94 C-48.41121799 90.35794543 -47.41946818 87.51109174 -45.69921875 84.25390625 C-44.98487671 82.8918103 -44.98487671 82.8918103 -44.25610352 81.50219727 C-43.73846436 80.53209717 -43.2208252 79.56199707 -42.6875 78.5625 C-42.14988037 77.54406006 -41.61226074 76.52562012 -41.05834961 75.47631836 C-35.98229632 65.89150493 -30.78495443 56.37312159 -25.56933594 46.86376953 C-15.17286864 28.0132921 -15.17286864 28.0132921 -5.46484375 8.8046875 C-3.83210756 5.67854195 -2.13775657 2.80867043 0 0 Z " fill="#89B6B7" transform="translate(52,4)"/>
<path d="M0 0 C0.66 0 1.32 0 2 0 C2.36125977 0.67240723 2.72251953 1.34481445 3.09472656 2.03759766 C4.81244889 5.2337765 6.53105099 8.42948071 8.25 11.625 C8.5657901 12.21211761 8.8815802 12.79923523 9.2069397 13.40414429 C13.0213858 20.49410546 16.85229842 27.57453728 20.72070312 34.63525391 C25.29009926 42.97546663 29.81079373 51.33966948 34.25 59.75 C34.96772583 61.10025269 34.96772583 61.10025269 35.69995117 62.4777832 C36.13412354 63.3049585 36.5682959 64.13213379 37.015625 64.984375 C37.40008789 65.71366211 37.78455078 66.44294922 38.18066406 67.19433594 C39 69 39 69 39 71 C39.99 71 40.98 71 42 71 C42.495 69.515 42.495 69.515 43 68 C44.34367392 70.41141481 45.67502515 72.82833988 47 75.25 C47.3815625 75.93191406 47.763125 76.61382812 48.15625 77.31640625 C48.69765625 78.31220703 48.69765625 78.31220703 49.25 79.328125 C49.58515625 79.9355957 49.9203125 80.54306641 50.265625 81.16894531 C51 83 51 83 51 87 C47.29302295 87.26260373 43.58843642 87.42156838 39.875 87.5625 C38.82828125 87.63791016 37.7815625 87.71332031 36.703125 87.79101562 C33.56596483 87.88036512 31.02872286 87.83945265 28 87 C25.21328398 84.35778521 23.47510843 81.53406364 22 78 C22 77.34 22 76.68 22 76 C11.44 76 0.88 76 -10 76 C-9.09485658 70.56913949 -8.24676198 68.20727432 -5.5 63.6875 C-4.8709375 62.63949219 -4.241875 61.59148437 -3.59375 60.51171875 C-2 58 -2 58 -1 57 C0.85287502 56.92773498 2.70833878 56.9161878 4.5625 56.9375 C5.57441406 56.94652344 6.58632813 56.95554688 7.62890625 56.96484375 C8.80259766 56.98224609 8.80259766 56.98224609 10 57 C11.61892099 50.47136067 10.59175553 47.27378654 7.2265625 41.52929688 C6.69804688 40.67400391 6.16953125 39.81871094 5.625 38.9375 C-0.81960885 28.3054906 -0.81960885 28.3054906 -1 22 C-0.67 21.34 -0.34 20.68 0 20 C3.83673924 21.27891308 4.02436589 22.41257021 5.8125 25.953125 C6.58980469 27.47099609 6.58980469 27.47099609 7.3828125 29.01953125 C7.91648437 30.08558594 8.45015625 31.15164062 9 32.25 C10.06125056 34.33917682 11.12371058 36.4277398 12.1875 38.515625 C12.65542969 39.44665039 13.12335938 40.37767578 13.60546875 41.33691406 C15.95129175 46.46629472 15.95129175 46.46629472 20 50 C17.67612509 41.90531305 13.8941014 34.89473635 9.8125 27.5625 C8.52213162 25.23325695 7.23839139 22.90064626 5.95703125 20.56640625 C5.10588745 19.03415405 5.10588745 19.03415405 4.23754883 17.47094727 C3 15 3 15 3 13 C-0.42578949 16.17539556 -0.42578949 16.17539556 -3 20 C-3.66 20 -4.32 20 -5 20 C-6.44441346 17.70593157 -7.04943036 16.45105205 -6.75 13.71875 C-5.87884892 10.56082733 -4.55040153 8.03581547 -2.9375 5.1875 C-2.11572266 3.72376953 -2.11572266 3.72376953 -1.27734375 2.23046875 C-0.85582031 1.49441406 -0.43429688 0.75835937 0 0 Z " fill="#90BBBD" transform="translate(52,11)"/>
<path d="M0 0 C0.66 0 1.32 0 2 0 C2.36125977 0.67240723 2.72251953 1.34481445 3.09472656 2.03759766 C4.81244888 5.23377648 6.53107723 8.42946662 8.25 11.625 C8.56645477 12.21344696 8.88290955 12.80189392 9.20895386 13.40817261 C12.98632913 20.4305414 16.78178299 27.44229303 20.61914062 34.43212891 C25.58927153 43.48967126 30.46049038 52.59556644 35.25 61.75 C36.11057007 63.38594116 36.11057007 63.38594116 36.98852539 65.05493164 C37.51309326 66.06289795 38.03766113 67.07086426 38.578125 68.109375 C39.04637695 69.00624023 39.51462891 69.90310547 39.99707031 70.82714844 C41 73 41 73 41 75 C39.02 75 37.04 75 35 75 C33.35 71.7 31.7 68.4 30 65 C15.15 64.505 15.15 64.505 0 64 C0.33 62.68 0.66 61.36 1 60 C9.58 60 18.16 60 27 60 C24.87850597 55.87317444 22.7542076 51.7478464 20.625 47.625 C20.15196442 46.70861252 20.15196442 46.70861252 19.66937256 45.77371216 C15.21886199 37.16205494 10.66922453 28.61790222 5.84619141 20.20751953 C3 15.20223172 3 15.20223172 3 13 C-0.42578949 16.17539556 -0.42578949 16.17539556 -3 20 C-3.66 20 -4.32 20 -5 20 C-6.44441346 17.70593157 -7.04943036 16.45105205 -6.75 13.71875 C-5.87884892 10.56082733 -4.55040153 8.03581547 -2.9375 5.1875 C-2.11572266 3.72376953 -2.11572266 3.72376953 -1.27734375 2.23046875 C-0.85582031 1.49441406 -0.43429688 0.75835937 0 0 Z " fill="#F3F9F9" transform="translate(52,11)"/>
<path d="M0 0 C7.7734375 -0.18896484 7.7734375 -0.18896484 9.8125 1.51171875 C10.204375 2.22972656 10.59625 2.94773438 11 3.6875 C11.47179687 4.5021875 11.94359375 5.316875 12.4296875 6.15625 C12.94789063 7.0946875 13.46609375 8.033125 14 9 C15.01926624 10.66572692 16.03891663 12.33125818 17.0703125 13.98950195 C18.08039504 15.61568808 19.07571083 17.25101842 20.0703125 18.88671875 C21.97965361 21.96717394 23.98965845 24.98448768 26 28 C26.33 18.76 26.66 9.52 27 0 C28.65 0 30.3 0 32 0 C32 12.54 32 25.08 32 38 C29.69 38 27.38 38 25 38 C22.91269131 35.7521291 21.58121014 33.96832892 20.0625 31.375 C19.64500488 30.70654053 19.22750977 30.03808105 18.79736328 29.34936523 C17.4998069 27.25026101 16.24489783 25.13069989 15 23 C14.59475098 22.31212402 14.18950195 21.62424805 13.77197266 20.91552734 C11.4586175 16.97133749 9.22513504 12.99700183 7 9 C6.67 18.57 6.34 28.14 6 38 C4.35 38 2.7 38 1 38 C0 37 0 37 -0.11352539 33.48999023 C-0.11336626 31.92951578 -0.10767142 30.36903607 -0.09765625 28.80859375 C-0.0962413 27.98875504 -0.09482635 27.16891632 -0.09336853 26.32423401 C-0.08775289 23.69528618 -0.07519779 21.06642227 -0.0625 18.4375 C-0.05748701 16.65950643 -0.05292376 14.88151154 -0.04882812 13.10351562 C-0.03777839 8.73564455 -0.02050331 4.36783652 0 0 Z " fill="#80B7BB" transform="translate(221,55)"/>
<path d="M0 0 C9.57 0 19.14 0 29 0 C29 5.55879932 28.49325611 6.24135751 25.1875 10.375 C23.97320312 11.92574219 23.97320312 11.92574219 22.734375 13.5078125 C22.29544922 14.0637207 21.85652344 14.61962891 21.40429688 15.19238281 C18.84204461 18.49052533 16.39719373 21.87512292 13.9375 25.25 C11.4934375 28.59125 11.4934375 28.59125 9 32 C15.6 32 22.2 32 29 32 C29 33.98 29 35.96 29 38 C19.76 38 10.52 38 1 38 C0 33 0 33 1.06054688 30.83105469 C1.60775391 30.11852539 2.15496094 29.40599609 2.71875 28.671875 C3.32203125 27.87136719 3.9253125 27.07085937 4.546875 26.24609375 C5.19140625 25.42238281 5.8359375 24.59867188 6.5 23.75 C7.11359375 22.94175781 7.7271875 22.13351563 8.359375 21.30078125 C10.22296667 18.85383841 12.10803298 16.42505198 14 14 C14.6703125 13.13697266 15.340625 12.27394531 16.03125 11.38476562 C17.68564379 9.25506717 19.34256203 7.12733018 21 5 C14.4 5 7.8 5 1 5 C0.67 3.35 0.34 1.7 0 0 Z " fill="#86BEC0" transform="translate(150,55)"/>
<path d="M0 0 C8.58 0 17.16 0 26 0 C26.33 1.65 26.66 3.3 27 5 C19.74 5 12.48 5 5 5 C5 8.63 5 12.26 5 16 C10.61 16 16.22 16 22 16 C21.67 17.65 21.34 19.3 21 21 C15.72 21 10.44 21 5 21 C5.33 24.63 5.66 28.26 6 32 C12.93 32.33 19.86 32.66 27 33 C27 34.65 27 36.3 27 38 C18.09 38 9.18 38 0 38 C0 25.46 0 12.92 0 0 Z " fill="#85B9BC" transform="translate(187,55)"/>
<path d="M0 0 C3.27719436 0.96242907 5.13494351 2.01649935 8 4 C8.703125 6.140625 8.703125 6.140625 9 8 C7.02 8.99 7.02 8.99 5 10 C3.7625 9.01 3.7625 9.01 2.5 8 C-1.27689498 5.4969163 -4.58283023 5.26087199 -9 6 C-13.0226217 7.56435288 -14.59149109 8.38723663 -17 12 C-18.31652861 16.47619728 -18.74572637 21.38784454 -18 26 C-16.28877683 29.07126248 -14.18981183 31.40509409 -11 33 C-6.47614542 33.59267747 -1.86554989 34.18716811 2.10546875 31.66015625 C3.25976916 30.57720333 4.39163157 29.46967458 5.49609375 28.3359375 C7 27 7 27 9.9375 26.625 C10.618125 26.74875 11.29875 26.8725 12 27 C11.51099389 31.23805295 9.03877311 34.1895285 6 37 C0.74950665 40.02913078 -4.06172196 40.90965016 -10 40 C-16.65404987 37.88551737 -20.55070399 34.08216002 -24.11328125 28.14453125 C-26.23527104 23.01249426 -25.80192171 16.26810725 -23.8125 11.125 C-21.87866775 7.79080647 -19.89041133 5.53792215 -17 3 C-16.41605469 2.46761719 -15.83210938 1.93523438 -15.23046875 1.38671875 C-10.71442511 -1.42097913 -5.11399505 -0.55401613 0 0 Z " fill="#85C1C4" transform="translate(130,54)"/>
<path d="M0 0 C0.66 0 1.32 0 2 0 C3.47762266 2.34681246 4.05414942 3.56236024 3.70849609 6.35595703 C2.97754365 9.08380507 1.99570282 11.16702063 0.6015625 13.6171875 C-0.11773437 14.89916016 -0.11773437 14.89916016 -0.8515625 16.20703125 C-1.35429688 17.08746094 -1.85703125 17.96789062 -2.375 18.875 C-5.55974989 24.4897804 -8.59760941 30.00219491 -11 36 C-8.36 36 -5.72 36 -3 36 C-4.03745719 41.51559517 -7.29370075 46.16320984 -10 51 C-15.61 51 -21.22 51 -27 51 C-22.00752339 40.82302846 -16.77328225 30.83397527 -11.30834961 20.90307617 C-8.05697551 14.98139579 -4.92976355 9.03175294 -1.98828125 2.94921875 C-1 1 -1 1 0 0 Z " fill="#F7FBFB" transform="translate(35,43)"/>
<path d="M0 0 C1.76171875 0.109375 1.76171875 0.109375 4 1 C5.95703125 3.765625 5.95703125 3.765625 7.8125 7.25 C8.75029297 8.95929687 8.75029297 8.95929687 9.70703125 10.703125 C11.15301408 14.3901628 11.07308907 15.30511332 10 19 C9.010502 21.09005329 7.949266 23.14683785 6.83984375 25.17578125 C6.21142578 26.33271484 5.58300781 27.48964844 4.93554688 28.68164062 C4.2696741 29.89200568 3.60365665 31.10229116 2.9375 32.3125 C2.26697322 33.541988 1.5970449 34.77180259 0.92773438 36.00195312 C-0.70898469 39.00456723 -2.35173963 42.00371057 -4 45 C-4.99 45 -5.98 45 -7 45 C-6.47731534 42.23723823 -5.89130413 39.6739124 -5 37 C-7.64 37 -10.28 37 -13 37 C-12.05619589 32.76569862 -10.19741034 29.09994539 -8.25 25.25 C-7.89236572 24.53062256 -7.53473145 23.81124512 -7.16625977 23.07006836 C-5.30237142 19.37041157 -3.36343563 15.93147539 -0.9375 12.5625 C1.52578957 8.89219854 1.16153471 5.93110793 0.39453125 1.6875 C0.19923828 0.8521875 0.19923828 0.8521875 0 0 Z " fill="#87B5B7" transform="translate(37,42)"/>
<path d="M0 0 C0.33 1.32 0.66 2.64 1 4 C11.23 4 21.46 4 32 4 C32 4.33 32 4.66 32 5 C22.1 5.33 12.2 5.66 2 6 C1.67 6.99 1.34 7.98 1 9 C1.78648926 8.95286865 2.57297852 8.9057373 3.38330078 8.85717773 C6.96320282 8.6695535 10.54207272 8.55290103 14.125 8.4375 C15.3625 8.36208984 16.6 8.28667969 17.875 8.20898438 C26.87224318 7.99130914 26.87224318 7.99130914 30.20605469 10.97314453 C34 16.53915895 34 16.53915895 34 20 C44.395 19.505 44.395 19.505 55 19 C55.495 21.475 55.495 21.475 56 24 C52.29302295 24.26260373 48.58843642 24.42156838 44.875 24.5625 C43.82828125 24.63791016 42.7815625 24.71332031 41.703125 24.79101562 C38.56596483 24.88036512 36.02872286 24.83945265 33 24 C30.21328398 21.35778521 28.47510843 18.53406364 27 15 C27 14.34 27 13.68 27 13 C16.44 13 5.88 13 -5 13 C-4.0111713 7.06702777 -3.01123597 4.85683221 0 0 Z " fill="#91B7BA" transform="translate(47,74)"/>
<path d="M0 0 C10.23 0 20.46 0 31 0 C36 9 36 9 36 11 C39.63 11 43.26 11 47 11 C47.66 12.32 48.32 13.64 49 15 C46.28496539 15.27210815 43.59712795 15.46829856 40.875 15.625 C40.11445312 15.70878906 39.35390625 15.79257813 38.5703125 15.87890625 C36.04671094 15.98768218 34.35347788 15.94941116 32 15 C30.59423828 12.76904297 30.59423828 12.76904297 29.3125 10.03125 C27.99738371 7.2375528 27.99738371 7.2375528 26 5 C21.37896923 3.58435209 16.92471566 3.73500829 12.125 3.875 C10.86429688 3.87242188 9.60359375 3.86984375 8.3046875 3.8671875 C5.20009846 3.8671875 2.10316608 3.91290028 -1 4 C-0.67 2.68 -0.34 1.36 0 0 Z " fill="#F6FBFB" transform="translate(49,79)"/>
<path d="M0 0 C7.92 0 15.84 0 24 0 C24 0.66 24 1.32 24 2 C17.4 2.33 10.8 2.66 4 3 C3.67 7.29 3.34 11.58 3 16 C8.28 16 13.56 16 19 16 C19 16.66 19 17.32 19 18 C13.72 18 8.44 18 3 18 C3.33 22.62 3.66 27.24 4 32 C10.6 32.33 17.2 32.66 24 33 C24 33.66 24 34.32 24 35 C16.08 35 8.16 35 0 35 C0 23.45 0 11.9 0 0 Z " fill="#72D4D7" transform="translate(188,56)"/>
<path d="M0 0 C3.78188144 1.26062715 3.94881524 2.26236525 5.70703125 5.7421875 C6.21169922 6.72703125 6.71636719 7.711875 7.23632812 8.7265625 C7.75646484 9.76554687 8.27660156 10.80453125 8.8125 11.875 C9.83879188 13.89376426 10.86613375 15.91199507 11.89453125 17.9296875 C12.40064941 18.92967773 12.90676758 19.92966797 13.42822266 20.95996094 C15.49886372 24.9648728 17.69024523 28.89799708 19.9050293 32.82470703 C21 35 21 35 21 37 C19.02 37 17.04 37 15 37 C13.04242808 33.22822332 11.08524552 29.45624493 9.12841797 25.68408203 C8.46315951 24.4018004 7.79779611 23.11957322 7.13232422 21.83740234 C6.17387504 19.9907043 5.21580782 18.14380852 4.2578125 16.296875 C3.6817627 15.18666992 3.10571289 14.07646484 2.51220703 12.93261719 C2.01317871 11.96485352 1.51415039 10.99708984 1 10 C0.59507324 9.2771582 0.19014648 8.55431641 -0.22705078 7.80957031 C-1.40147493 5.06009723 -0.64553553 2.84035632 0 0 Z " fill="#F4F9F9" transform="translate(52,31)"/>
<path d="M0 0 C7.75146484 -0.22412109 7.75146484 -0.22412109 9.98828125 1.79296875 C10.64376953 2.97826172 10.64376953 2.97826172 11.3125 4.1875 C11.78429687 5.00734375 12.25609375 5.8271875 12.7421875 6.671875 C13.15726563 7.44015625 13.57234375 8.2084375 14 9 C14.9590625 10.4540625 14.9590625 10.4540625 15.9375 11.9375 C16.288125 12.618125 16.63875 13.29875 17 14 C16.67 14.66 16.34 15.32 16 16 C15.11248047 14.50146484 15.11248047 14.50146484 14.20703125 12.97265625 C13.4096858 11.66876192 12.61146256 10.36540408 11.8125 9.0625 C11.23145508 8.0734668 11.23145508 8.0734668 10.63867188 7.06445312 C10.24873047 6.43603516 9.85878906 5.80761719 9.45703125 5.16015625 C9.10616455 4.57886963 8.75529785 3.99758301 8.39379883 3.39868164 C6.72283309 1.46256628 6.72283309 1.46256628 2 1 C2 12.55 2 24.1 2 36 C2.66 36 3.32 36 4 36 C4.33 25.77 4.66 15.54 5 5 C8 6 8 6 9.75 8.375 C11 11 11 11 10 14 C9.01 12.35 8.02 10.7 7 9 C6.67 18.57 6.34 28.14 6 38 C4.35 38 2.7 38 1 38 C0 37 0 37 -0.11352539 33.48999023 C-0.11336626 31.92951578 -0.10767142 30.36903607 -0.09765625 28.80859375 C-0.0962413 27.98875504 -0.09482635 27.16891632 -0.09336853 26.32423401 C-0.08775289 23.69528618 -0.07519779 21.06642227 -0.0625 18.4375 C-0.05748701 16.65950643 -0.05292376 14.88151154 -0.04882812 13.10351562 C-0.03777839 8.73564455 -0.02050331 4.36783652 0 0 Z " fill="#8DBFC3" transform="translate(221,55)"/>
<path d="M0 0 C5 0 5 0 6.4855957 1.31347656 C6.87835693 1.91643555 7.27111816 2.51939453 7.67578125 3.140625 C8.11083984 3.79933594 8.54589844 4.45804688 8.99414062 5.13671875 C9.42919922 5.83410156 9.86425781 6.53148437 10.3125 7.25 C10.76689453 7.93191406 11.22128906 8.61382812 11.68945312 9.31640625 C15 14.44402021 15 14.44402021 15 19 C14.34 19 13.68 19 13 19 C11 16 11 16 11 13 C10.34 13 9.68 13 9 13 C6 7.25 6 7.25 6 5 C5.34 5 4.68 5 4 5 C3.97494385 5.83772949 3.9498877 6.67545898 3.92407227 7.53857422 C3.82899643 10.64352256 3.72975975 13.74830181 3.62768555 16.85302734 C3.56301749 18.85894807 3.50316894 20.86502228 3.44335938 22.87109375 C3.40146484 24.12792969 3.35957031 25.38476562 3.31640625 26.6796875 C3.27974854 27.84226074 3.24309082 29.00483398 3.20532227 30.20263672 C3 33 3 33 2 35 C1.34 35 0.68 35 0 35 C0 23.45 0 11.9 0 0 Z " fill="#70D3D6" transform="translate(223,56)"/>
<path d="M0 0 C0.99 0 1.98 0 3 0 C3 11.55 3 23.1 3 35 C1.02 35 -0.96 35 -3 35 C-4.83634586 32.84736045 -6.04622328 31.12014376 -7.375 28.6875 C-7.90673828 27.79514648 -7.90673828 27.79514648 -8.44921875 26.88476562 C-10.08377463 24.06058123 -11 22.31050241 -11 19 C-10.34 19 -9.68 19 -9 19 C-7.2734375 21.3359375 -7.2734375 21.3359375 -5.375 24.375 C-4.74335938 25.37273437 -4.11171875 26.37046875 -3.4609375 27.3984375 C-2 30 -2 30 -2 32 C-1.34 32 -0.68 32 0 32 C0 21.44 0 10.88 0 0 Z " fill="#72D4D8" transform="translate(249,56)"/>
<path d="M0 0 C5.46774342 2.63079935 5.46774342 2.63079935 6.73828125 5.171875 C6.18140625 4.9553125 5.62453125 4.73875 5.05078125 4.515625 C-2.00298889 1.94195211 -7.85093009 1.31917784 -15.26171875 3.171875 C-15.59171875 4.161875 -15.92171875 5.151875 -16.26171875 6.171875 C-16.92171875 6.171875 -17.58171875 6.171875 -18.26171875 6.171875 C-19.46998639 9.97066847 -19.42957458 13.64518052 -19.44921875 17.609375 C-19.46339844 18.90746094 -19.47757812 20.20554687 -19.4921875 21.54296875 C-19.27729577 24.92660299 -18.73338093 27.15293163 -17.26171875 30.171875 C-19.99346257 29.1702356 -21.05716475 28.58169823 -22.37890625 25.93359375 C-23.31002207 23.02076683 -23.52885204 20.72160021 -23.51171875 17.671875 C-23.516875 16.7540625 -23.52203125 15.83625 -23.52734375 14.890625 C-23.15448336 11.07428928 -22.2899157 8.29377463 -19.67578125 5.44140625 C-19.08539063 4.96058594 -18.495 4.47976562 -17.88671875 3.984375 C-17.30148438 3.49582031 -16.71625 3.00726563 -16.11328125 2.50390625 C-11.04653941 -1.14115486 -5.9516392 -2.17918395 0 0 Z " fill="#71D1D2" transform="translate(130.26171875,55.828125)"/>
<path d="M0 0 C0.66 0 1.32 0 2 0 C1.6875 1.9375 1.6875 1.9375 1 4 C0.01 4.33 -0.98 4.66 -2 5 C-1.67 6.32 -1.34 7.64 -1 9 C5.6 9.33 12.2 9.66 19 10 C18.34 11.32 17.68 12.64 17 14 C8.75 14 0.5 14 -8 14 C-7.12922498 10.51689991 -6.56005023 9.02404601 -4.5625 6.25 C-4.13066406 5.63640625 -3.69882813 5.0228125 -3.25390625 4.390625 C-2.63322266 3.70226562 -2.63322266 3.70226562 -2 3 C-1.34 3 -0.68 3 0 3 C0 2.01 0 1.02 0 0 Z " fill="#82D6D8" transform="translate(160,77)"/>
<path d="M0 0 C1.5625 1.1875 1.5625 1.1875 3 3 C2.65701712 7.73316377 0.30993359 11.33385921 -2.0625 15.3125 C-2.62807617 16.28026367 -2.62807617 16.28026367 -3.20507812 17.26757812 C-4.13037493 18.84878152 -5.06432681 20.4249146 -6 22 C-7.65 22 -9.3 22 -11 22 C-9.65727474 16.89764402 -7.20905168 12.85578781 -4.46484375 8.4140625 C-2.8008299 5.67176767 -1.37208466 2.89662317 0 0 Z " fill="#F1F8F8" transform="translate(41,53)"/>
<path d="M0 0 C1.65 0 3.3 0 5 0 C3.45614871 4.14032846 1.48971062 7.93553053 -0.625 11.8125 C-0.94984375 12.40998047 -1.2746875 13.00746094 -1.609375 13.62304688 C-2.40379151 15.08337135 -3.20155376 16.54187491 -4 18 C-2.35 18 -0.7 18 1 18 C-0.98 18.99 -0.98 18.99 -3 20 C-2.67 20.66 -2.34 21.32 -2 22 C-4.64 22 -7.28 22 -10 22 C-9.37753426 19.1651087 -8.50123079 16.76462294 -7.1875 14.1796875 C-6.83429687 13.47972656 -6.48109375 12.77976562 -6.1171875 12.05859375 C-5.56417969 10.97771484 -5.56417969 10.97771484 -5 9.875 C-4.63132812 9.14667969 -4.26265625 8.41835937 -3.8828125 7.66796875 C-2.92509926 5.77700939 -1.96285037 3.88834878 -1 2 C-0.67 1.34 -0.34 0.68 0 0 Z " fill="#90BABB" transform="translate(34,57)"/>
<path d="M0 0 C0.66 0 1.32 0 2 0 C2 0.99 2 1.98 2 3 C12.23 3 22.46 3 33 3 C33.495 5.475 33.495 5.475 34 8 C33.34 8.33 32.68 8.66 32 9 C31.34 8.01 30.68 7.02 30 6 C26.7998894 5.48745872 26.7998894 5.48745872 23.0234375 5.48828125 C21.99556625 5.46135445 21.99556625 5.46135445 20.94692993 5.43388367 C18.75634941 5.37966292 16.5659881 5.34584947 14.375 5.3125 C12.89059441 5.27933706 11.40621779 5.24484835 9.921875 5.20898438 C6.28146088 5.12393185 2.64097056 5.05717644 -1 5 C-0.67 3.35 -0.34 1.7 0 0 Z " fill="#7BB9BD" transform="translate(49,73)"/>
<path d="M0 0 C8.58 0 17.16 0 26 0 C25 4 25 4 24 6 C23.01 6 22.02 6 21 6 C21 5.01 21 4.02 21 3 C14.07 2.67 7.14 2.34 0 2 C0 1.34 0 0.68 0 0 Z " fill="#72D5D7" transform="translate(152,56)"/>
<path d="M0 0 C0.99 0 1.98 0 3 0 C3 11.55 3 23.1 3 35 C2.67 35 2.34 35 2 35 C1.67 33.35 1.34 31.7 1 30 C0.67 30 0.34 30 0 30 C0 20.1 0 10.2 0 0 Z " fill="#74D2D5" transform="translate(249,56)"/>
<path d="M0 0 C0.33 0.66 0.66 1.32 1 2 C1.66 2 2.32 2 3 2 C0.64566929 9.78740157 0.64566929 9.78740157 -2 13 C-5.1875 13.3125 -5.1875 13.3125 -8 13 C-7.67 12.34 -7.34 11.68 -7 11 C-13.93 10.505 -13.93 10.505 -21 10 C-21 9.67 -21 9.34 -21 9 C-12.585 8.505 -12.585 8.505 -4 8 C-2.68 5.36 -1.36 2.72 0 0 Z " fill="#93BAB8" transform="translate(29,85)"/>
<path d="M0 0 C0.89267578 0.00322266 1.78535156 0.00644531 2.70507812 0.00976562 C4.09823242 0.02233398 4.09823242 0.02233398 5.51953125 0.03515625 C6.45990234 0.03966797 7.40027344 0.04417969 8.36914062 0.04882812 C10.69016837 0.06060999 13.01106769 0.07706067 15.33203125 0.09765625 C15.66203125 1.08765625 15.99203125 2.07765625 16.33203125 3.09765625 C8.74203125 3.09765625 1.15203125 3.09765625 -6.66796875 3.09765625 C-6.99796875 2.43765625 -7.32796875 1.77765625 -7.66796875 1.09765625 C-4.78531726 0.13677242 -2.99134604 -0.01905316 0 0 Z " fill="#84B3B4" transform="translate(86.66796875,94.90234375)"/>
<path d="M0 0 C0.66 0 1.32 0 2 0 C2 1.32 2 2.64 2 4 C-5.59 4.33 -13.18 4.66 -21 5 C-20.67 4.01 -20.34 3.02 -20 2 C-13.4 2 -6.8 2 0 2 C0 1.34 0 0.68 0 0 Z " fill="#91C1C5" transform="translate(212,56)"/>
<path d="M0 0 C0.33 0.99 0.66 1.98 1 3 C6.61 3 12.22 3 18 3 C13.60179985 6.29865011 12.5599998 6.36752519 7.3125 6.25 C6.15363281 6.23453125 4.99476562 6.2190625 3.80078125 6.203125 C1 6 1 6 0 5 C-0.04063832 3.33382885 -0.042721 1.66611905 0 0 Z " fill="#7EB2AE" transform="translate(7,92)"/>
<path d="M0 0 C-0.46800711 4.05606165 -0.87953208 7.46588679 -3 11 C-3.99 11 -4.98 11 -6 11 C-5.41196203 7.97580475 -4.77321882 4.98241547 -4 2 C-5.65 2 -7.3 2 -9 2 C-5.86501708 0.14223235 -3.62528568 -0.20140476 0 0 Z " fill="#74B8B7" transform="translate(36,76)"/>
<path d="M0 0 C0.33 0 0.66 0 1 0 C1 10.56 1 21.12 1 32 C-0.32 31.67 -1.64 31.34 -3 31 C-3 30.34 -3 29.68 -3 29 C-2.34 29 -1.68 29 -1 29 C-0.67 19.43 -0.34 9.86 0 0 Z " fill="#6ADBDF" transform="translate(250,59)"/>
<path d="M0 0 C3.16306276 3.43811169 3.48415917 6.44340596 4 11 C5.49743119 12.49743119 6.98824239 12.33202693 9.0625 12.5625 C10.361875 12.706875 11.66125 12.85125 13 13 C13 13.33 13 13.66 13 14 C9.7 14 6.4 14 3 14 C-0.00559652 8.99067246 -0.29341888 5.67276511 0 0 Z " fill="#99BDBD" transform="translate(82,76)"/>
<path d="M0 0 C0.99 0 1.98 0 3 0 C1.59808647 2.99254618 -0.03367489 5.5954611 -2 8.25 C-2.515625 8.95640625 -3.03125 9.6628125 -3.5625 10.390625 C-4.2740625 11.18726562 -4.2740625 11.18726562 -5 12 C-5.66 12 -6.32 12 -7 12 C-6.38024215 8.644238 -5.15537152 6.47736472 -3.125 3.75 C-2.61195313 3.04359375 -2.09890625 2.3371875 -1.5703125 1.609375 C-0.79300781 0.81273438 -0.79300781 0.81273438 0 0 Z " fill="#6ED4D6" transform="translate(170,64)"/>
<path d="M0 0 C0.556875 0.7425 1.11375 1.485 1.6875 2.25 C7.14953482 8.74539276 11.79310361 9.90766353 20 11 C20 11.33 20 11.66 20 12 C13.46557966 12.60255925 9.10864758 12.14590536 3.59375 8.484375 C1.75997297 6.77644541 0.90328348 5.33047139 0 3 C0 2.01 0 1.02 0 0 Z " fill="#7BB9BC" transform="translate(110,78)"/>
<path d="M0 0 C3.125 -0.5625 3.125 -0.5625 7 0 C9.51195195 2.70874081 11.213164 5.78261555 13 9 C13.9590625 10.4540625 13.9590625 10.4540625 14.9375 11.9375 C15.288125 12.618125 15.63875 13.29875 16 14 C15.67 14.66 15.34 15.32 15 16 C14.12988281 14.4840625 14.12988281 14.4840625 13.2421875 12.9375 C12.4542736 11.62431016 11.66514734 10.31184719 10.875 9 C10.49601563 8.33226562 10.11703125 7.66453125 9.7265625 6.9765625 C8.44722238 4.78285121 8.44722238 4.78285121 6 2 C2.79256013 1.41375458 2.79256013 1.41375458 0 2 C0 1.34 0 0.68 0 0 Z " fill="#86BBC0" transform="translate(222,55)"/>
<path d="M0 0 C0.33 0.99 0.66 1.98 1 3 C1.99 3.33 2.98 3.66 4 4 C3.67 4.99 3.34 5.98 3 7 C0 6 0 6 -2 3 C-3.96361864 2.42251197 -3.96361864 2.42251197 -6.125 2.3125 C-7.40375 2.209375 -8.6825 2.10625 -10 2 C-10 1.67 -10 1.34 -10 1 C-6.7 0.67 -3.4 0.34 0 0 Z " fill="#80B0B0" transform="translate(97,87)"/>
<path d="M0 0 C0.66 0.33 1.32 0.66 2 1 C2.04254356 2.99954746 2.04080783 5.00041636 2 7 C1 8 1 8 -1.5625 8.0625 C-2.366875 8.041875 -3.17125 8.02125 -4 8 C-3.67 6.35 -3.34 4.7 -3 3 C-2.34 3 -1.68 3 -1 3 C-0.67 2.01 -0.34 1.02 0 0 Z " fill="#7EB8B5" transform="translate(46,78)"/>
<path d="M0 0 C4.23431576 3.60700972 6.4692099 8.14586161 9 13 C8.01 13.495 8.01 13.495 7 14 C6.16121545 12.71186658 5.32913217 11.41936744 4.5 10.125 C4.0359375 9.40570313 3.571875 8.68640625 3.09375 7.9453125 C2 6 2 6 2 4 C1.34 4 0.68 4 0 4 C0 2.68 0 1.36 0 0 Z " fill="#86C1C5" transform="translate(238,71)"/>
<path d="M0 0 C-0.33 0.66 -0.66 1.32 -1 2 C-7.6 1.67 -14.2 1.34 -21 1 C-21 0.67 -21 0.34 -21 0 C-18.43788925 -0.19569589 -15.87567609 -0.38180612 -13.3125 -0.5625 C-12.59126953 -0.61857422 -11.87003906 -0.67464844 -11.12695312 -0.73242188 C-7.22685936 -0.99955159 -3.78888972 -1.00887596 0 0 Z " fill="#9BC5C4" transform="translate(103,94)"/>
<path d="M0 0 C0.33 0.66 0.66 1.32 1 2 C2.093125 1.773125 3.18625 1.54625 4.3125 1.3125 C5.529375 1.209375 6.74625 1.10625 8 1 C8.99 1.99 9.98 2.98 11 4 C7.37 4 3.74 4 0 4 C0 2.68 0 1.36 0 0 Z " fill="#82BEBC" transform="translate(86,84)"/>
<path d="M0 0 C0.78375 0.04125 1.5675 0.0825 2.375 0.125 C1.81128586 3.39454202 0.87537734 4.95075883 -1.625 7.125 C-1.625 6.135 -1.625 5.145 -1.625 4.125 C-2.615 3.465 -3.605 2.805 -4.625 2.125 C-2.625 0.125 -2.625 0.125 0 0 Z " fill="#86BCBD" transform="translate(139.625,80.875)"/>
<path d="M0 0 C1.89213369 2.38573379 3.02391783 4.07175348 4 7 C2.35 7 0.7 7 -1 7 C-1.66 5.35 -2.32 3.7 -3 2 C-2.01 2 -1.02 2 0 2 C0 1.34 0 0.68 0 0 Z " fill="#8DBBBD" transform="translate(59,33)"/>
<path d="M0 0 C1.8871875 0.0309375 1.8871875 0.0309375 3.8125 0.0625 C3.8125 0.7225 3.8125 1.3825 3.8125 2.0625 C0.1825 2.3925 -3.4475 2.7225 -7.1875 3.0625 C-7.1875 2.4025 -7.1875 1.7425 -7.1875 1.0625 C-4.43671116 0.14557039 -2.82801087 -0.04636083 0 0 Z " fill="#7FC0C2" transform="translate(124.1875,56.9375)"/>
<path d="M0 0 C0.99 0 1.98 0 3 0 C3.33 1.32 3.66 2.64 4 4 C2.35 4.33 0.7 4.66 -1 5 C-1 1 -1 1 0 0 Z " fill="#8BBFBE" transform="translate(52,4)"/>
<path d="M0 0 C1.32 0 2.64 0 4 0 C4.33 2.31 4.66 4.62 5 7 C4.01 6.67 3.02 6.34 2 6 C0.8125 2.9375 0.8125 2.9375 0 0 Z " fill="#82B3B7" transform="translate(67,54)"/>
<path d="M0 0 C0.66 0 1.32 0 2 0 C2.33 1.65 2.66 3.3 3 5 C1.68 5.33 0.36 5.66 -1 6 C-1.66 4.68 -2.32 3.36 -3 2 C-2.01 2 -1.02 2 0 2 C0 1.34 0 0.68 0 0 Z " fill="#7FBEBC" transform="translate(42,25)"/>
<path d="M0 0 C1.32 0.33 2.64 0.66 4 1 C4.33 2.98 4.66 4.96 5 7 C4.01 7 3.02 7 2 7 C0.5393715 4.35261084 0 3.10551666 0 0 Z " fill="#7FB1B4" transform="translate(86,69)"/>
<path d="M0 0 C1.89213369 2.38573379 3.02391783 4.07175348 4 7 C2.68 7.33 1.36 7.66 0 8 C-1.125 2.25 -1.125 2.25 0 0 Z " fill="#84BBBD" transform="translate(40,43)"/>
<path d="M0 0 C1.39195915 4.17587745 -0.17676781 6.13474776 -2 10 C-2.66 10 -3.32 10 -4 10 C-3.5205537 5.78087253 -2.83374881 3.20336822 0 0 Z " fill="#8EBBC0" transform="translate(154,82)"/>
<path d="M0 0 C0.66 0.33 1.32 0.66 2 1 C1.67 2.65 1.34 4.3 1 6 C0.01 6 -0.98 6 -2 6 C-1.125 1.125 -1.125 1.125 0 0 Z " fill="#83B5B1" transform="translate(32,81)"/>
<path d="M0 0 C1.32 0 2.64 0 4 0 C4 1.32 4 2.64 4 4 C2.35 4 0.7 4 -1 4 C-0.67 2.68 -0.34 1.36 0 0 Z " fill="#7FC0C2" transform="translate(33,38)"/>
<path d="M0 0 C1.98 0.495 1.98 0.495 4 1 C4 1.99 4 2.98 4 4 C2.35 4.33 0.7 4.66 -1 5 C-0.67 3.35 -0.34 1.7 0 0 Z " fill="#5FDADB" transform="translate(225,57)"/>
<path d="M0 0 C1.5 1.375 1.5 1.375 3 3 C3 3.66 3 4.32 3 5 C1.68 5.33 0.36 5.66 -1 6 C-1.33 5.01 -1.66 4.02 -2 3 C-1.34 2.01 -0.68 1.02 0 0 Z " fill="#8FB9BD" transform="translate(76,46)"/>
</svg>
